<svg viewBox="0 0 1024 1024" xmlns="http://www.w3.org/2000/svg">
  <path
    fill="#D97757"
    d="M714.24 458.24c-17.92-15.36-245.76-222.72-245.76-222.72-10.24-10.24-25.6-7.68-35.84 2.56-5.12 5.12-7.68 12.8-7.68 17.92 0 0 0 0 0 0 0 0 0 499.2 0 512 0 15.36 10.24 25.6 25.6 25.6 5.12 0 12.8-2.56 15.36-7.68 2.56-2.56 217.6-186.88 240.64-207.36 23.04-20.48 33.28-38.4 33.28-64C742.4 491.52 732.16 473.6 714.24 458.24zM680.96 535.04c-7.68 5.12-204.8 176.64-204.8 176.64l0-399.36c0 0 186.88 166.4 202.24 181.76C696.32 512 698.88 519.68 680.96 535.04z"
  />
</svg>
