<svg t="1774452546378" class="icon" viewBox="0 0 1024 1024" version="1.1" xmlns="http://www.w3.org/2000/svg" width="200" height="200"><path d="M512 512m-237.96 0a237.96 237.96 0 1 0 475.92 0 237.96 237.96 0 1 0-475.92 0Z" fill="#EB6B69" p-id="3394"></path><path d="M574.916 229.48l-44.824-95.096c-7.212-15.296-28.972-15.296-36.184 0L449.084 229.48A290.164 290.164 0 0 1 512 222.608c21.616 0 42.672 2.376 62.916 6.872zM574.916 794.52l-44.824 95.096c-7.212 15.296-28.972 15.296-36.184 0l-44.824-95.096A290.164 290.164 0 0 0 512 801.392c21.616 0 42.672-2.376 62.916-6.872zM356.72 267.732l-98.94-35.54c-15.912-5.716-31.3 9.668-25.584 25.584l35.54 98.94A291.448 291.448 0 0 1 356.72 267.732zM667.28 756.268l98.94 35.54c15.912 5.716 31.3-9.668 25.584-25.584l-35.54-98.94a291.448 291.448 0 0 1-88.984 88.984zM222.608 512c0 21.616 2.376 42.672 6.872 62.916l-95.096-44.824c-15.296-7.212-15.296-28.972 0-36.184l95.096-44.824A289.944 289.944 0 0 0 222.608 512zM794.52 449.084l95.096 44.824c15.296 7.212 15.296 28.972 0 36.184l-95.096 44.824A290.164 290.164 0 0 0 801.392 512c0-21.616-2.376-42.672-6.872-62.916zM356.72 756.268l-98.94 35.54c-15.912 5.716-31.3-9.668-25.584-25.584l35.54-98.94a291.448 291.448 0 0 0 88.984 88.984zM667.28 267.732l98.94-35.54c15.912-5.716 31.3 9.668 25.584 25.584l-35.54 98.94a291.448 291.448 0 0 0-88.984-88.984z" fill="#FCC800" p-id="3395"></path><path d="M313 512c0-124.856 96.18-227.18 218.48-237.1a241.352 241.352 0 0 0-19.48-0.86c-131.424 0-237.96 106.54-237.96 237.96 0 131.424 106.54 237.96 237.96 237.96 6.564 0 13.048-0.336 19.48-0.86-122.3-9.92-218.48-112.244-218.48-237.1z" fill="#E8E6F4" p-id="3396"></path><path d="M512 761.96c-137.828 0-249.96-112.132-249.96-249.96S374.172 262.04 512 262.04s249.96 112.132 249.96 249.96-112.132 249.96-249.96 249.96z m0-475.92c-124.596 0-225.96 101.368-225.96 225.96s101.364 225.96 225.96 225.96c124.592 0 225.96-101.368 225.96-225.96S636.592 286.04 512 286.04z" fill="#44294F" p-id="3397"></path><path d="M718.792 512h-24c0-58.032-26.648-111.336-73.112-146.248l14.416-19.188c52.556 39.488 82.696 99.784 82.696 165.436zM585.104 344.408a182.052 182.052 0 0 0-36.532-11.54l4.772-23.524a206.012 206.012 0 0 1 41.36 13.072l-9.6 21.992zM449.084 241.48a12.004 12.004 0 0 1-10.856-17.116l44.824-95.096A31.724 31.724 0 0 1 512 110.912h0.004a31.716 31.716 0 0 1 28.94 18.36l44.824 95.092a11.996 11.996 0 0 1-1.484 12.608 11.968 11.968 0 0 1-11.972 4.224c-39.352-8.744-81.28-8.744-120.624 0a12.02 12.02 0 0 1-2.604 0.284zM512 210.608c14.116 0 28.22 0.984 42.136 2.932l-34.904-74.044c-1.948-4.14-5.708-4.588-7.232-4.588s-5.284 0.444-7.24 4.588l-34.896 74.044A304.168 304.168 0 0 1 512 210.608zM512 913.088a31.72 31.72 0 0 1-28.944-18.356l-44.824-95.096a12 12 0 1 1 13.46-16.832c39.344 8.744 81.272 8.744 120.624 0a12.008 12.008 0 0 1 13.456 16.832l-44.824 95.096a31.72 31.72 0 0 1-28.948 18.356z m-42.136-102.632l34.9 74.044c1.952 4.144 5.712 4.588 7.24 4.588 1.524 0 5.284-0.448 7.232-4.584l34.904-74.048a304.832 304.832 0 0 1-84.276 0zM267.736 368.72a12.004 12.004 0 0 1-11.296-7.948l-35.536-98.94a31.712 31.712 0 0 1 7.488-33.44c8.852-8.852 21.66-11.728 33.444-7.488l98.94 35.54a12 12 0 0 1 2.392 21.408 281.136 281.136 0 0 0-85.32 85.32 12 12 0 0 1-10.112 5.548z m-16.832-125.744c-2.788 0-4.72 1.564-5.544 2.388-1.08 1.08-3.416 4.052-1.872 8.356l27.676 77.056a306.44 306.44 0 0 1 59.612-59.604l-77.056-27.68a8.22 8.22 0 0 0-2.816-0.516zM773.1 805.02a32.264 32.264 0 0 1-10.932-1.92l-98.94-35.54a12.004 12.004 0 0 1-2.396-21.408 281.112 281.112 0 0 0 85.316-85.316 11.992 11.992 0 0 1 21.408 2.396l35.54 98.94a31.708 31.708 0 0 1-7.488 33.44 31.74 31.74 0 0 1-22.508 9.408z m-79.872-52.184l77.052 27.676c4.324 1.54 7.28-0.796 8.364-1.872 1.08-1.08 3.416-4.056 1.872-8.364l-27.676-77.052a306.7 306.7 0 0 1-59.612 59.612zM229.48 586.916c-1.736 0-3.484-0.376-5.116-1.144l-95.096-44.824a31.72 31.72 0 0 1-18.356-28.944 31.72 31.72 0 0 1 18.356-28.944l95.096-44.824a12 12 0 1 1 16.832 13.456c-4.372 19.684-6.584 39.976-6.584 60.312s2.216 40.628 6.584 60.312a12 12 0 0 1-11.716 14.6z m-15.936-117.052l-74.044 34.904c-4.144 1.948-4.588 5.712-4.588 7.236s0.448 5.284 4.588 7.236l74.044 34.904a304.256 304.256 0 0 1 0-84.28zM794.52 586.916a12 12 0 0 1-11.716-14.6c4.372-19.676 6.584-39.964 6.584-60.312s-2.216-40.636-6.584-60.312a12 12 0 1 1 16.832-13.456l95.096 44.824c11.32 5.336 18.356 16.424 18.356 28.944s-7.036 23.608-18.36 28.944l-95.092 44.824a12.008 12.008 0 0 1-5.116 1.144z m15.936-117.052a304.212 304.212 0 0 1 0 84.272l74.044-34.904c4.144-1.948 4.588-5.712 4.588-7.236s-0.444-5.284-4.584-7.236l-74.048-34.896zM250.9 805.02a31.712 31.712 0 0 1-22.508-9.412 31.72 31.72 0 0 1-7.488-33.444l35.536-98.936a12.004 12.004 0 0 1 21.412-2.4 281.092 281.092 0 0 0 85.32 85.32 12 12 0 0 1-2.392 21.408l-98.94 35.54c-3.6 1.296-7.296 1.924-10.94 1.924z m20.264-111.792l-27.676 77.052c-1.548 4.308 0.792 7.28 1.872 8.36s4.056 3.416 8.36 1.876l77.056-27.68a306.568 306.568 0 0 1-59.612-59.608zM756.26 368.72a11.992 11.992 0 0 1-10.112-5.552 281.112 281.112 0 0 0-85.316-85.316 11.992 11.992 0 0 1 2.396-21.408l98.94-35.54a31.708 31.708 0 0 1 33.44 7.488 31.708 31.708 0 0 1 7.488 33.44l-35.54 98.94a12.004 12.004 0 0 1-11.296 7.948z m-63.032-97.556a306.66 306.66 0 0 1 59.608 59.608l27.676-77.052c1.548-4.308-0.792-7.284-1.872-8.364-1.084-1.08-4.06-3.416-8.364-1.872l-77.048 27.68z" fill="#44294F" p-id="3398"></path></svg>
